# xmcd
#
# Track frame offsets:
#	150
#	14746
#	31500
#	51656
#	68870
#	84941
#	102130
#	115911
#	142117
#	156756
#	177363
#	194690
#	222511
#
# Disc length: 2974 seconds
#
# Revision: 1
# Processed by: cddbd v1.5.2PL0 Copyright (c) Steve Scherf et al.
# Submitted via: audiograbber 1.81.03
#
DISCID=bd0b9c0d
DTITLE=Ken`Whiteley - One World Dance
DYEAR=2007
DGENRE=Blues
TTITLE0=Everybody Has The Blues
TTITLE1=Get At
TTITLE2=Going To Be
TTITLE3=Lunch Counter Encounter
TTITLE4=Death Letter Blues
TTITLE5=Still Can't Believe You're Gone
TTITLE6=Two Wings
TTITLE7=One World Dance
TTITLE8=November
TTITLE9=That's When I Need A Song
TTITLE10=Trying To Find My Way
TTITLE11=That's Alright
TTITLE12=Data Track
EXTD=
EXTT0=
EXTT1=
EXTT2=
EXTT3=
EXTT4=
EXTT5=
EXTT6=
EXTT7=
EXTT8=
EXTT9=
EXTT10=
EXTT11=
EXTT12=
PLAYORDER=
